<svg xmlns="http://www.w3.org/2000/svg" xmlns:xlink="http://www.w3.org/1999/xlink" viewBox="0,0,256,256" width="100px" height="100px" fill-rule="nonzero"><g fill="#ffffff" fill-rule="nonzero" stroke="none" stroke-width="1" stroke-linecap="butt" stroke-linejoin="miter" stroke-miterlimit="10" stroke-dasharray="" stroke-dashoffset="0" font-family="none" font-weight="none" font-size="none" text-anchor="none" style="mix-blend-mode: normal"><g transform="scale(2.56,2.56)"><path d="M31,17c-7.72039,0 -14,6.27961 -14,14v38c0,7.72039 6.27961,14 14,14h38c7.72039,0 14,-6.27961 14,-14v-38c0,-7.72039 -6.27961,-14 -14,-14zM31,19h38c6.63961,0 12,5.36039 12,12v38c0,6.63961 -5.36039,12 -12,12h-38c-6.63961,0 -12,-5.36039 -12,-12v-38c0,-6.63961 5.36039,-12 12,-12zM33.5,22c-6.34523,0 -11.5,5.15477 -11.5,11.5v33c0,6.34523 5.15477,11.5 11.5,11.5h33c6.34523,0 11.5,-5.15477 11.5,-11.5v-17c0.00255,-0.18032 -0.09219,-0.34804 -0.24794,-0.43894c-0.15575,-0.0909 -0.34838,-0.0909 -0.50413,0c-0.15575,0.0909 -0.25049,0.25863 -0.24794,0.43894v17c0,5.80477 -4.69523,10.5 -10.5,10.5h-33c-5.80477,0 -10.5,-4.69523 -10.5,-10.5v-33c0,-5.80477 4.69523,-10.5 10.5,-10.5h33c0.31729,0 0.63424,0.01966 0.95508,0.04883c0.17795,0.01607 0.35095,-0.06402 0.45384,-0.2101c0.10288,-0.14608 0.12001,-0.33595 0.04493,-0.49809c-0.07508,-0.16213 -0.23096,-0.27189 -0.40892,-0.28791c-0.33916,-0.03083 -0.68621,-0.05273 -1.04492,-0.05273zM77.49219,36.99219c-0.13261,0.00207 -0.25896,0.05673 -0.35127,0.15197c-0.0923,0.09523 -0.14299,0.22324 -0.14092,0.35584v2c-0.00255,0.18032 0.09219,0.34804 0.24794,0.43894c0.15575,0.0909 0.34838,0.0909 0.50413,0c0.15575,-0.0909 0.25049,-0.25863 0.24794,-0.43894v-2c0.00212,-0.13532 -0.0507,-0.26572 -0.1464,-0.36141c-0.0957,-0.0957 -0.22609,-0.14852 -0.36141,-0.1464zM32.87305,38.99805c-0.66863,0 -1.18288,0.176 -1.5,0.53125c-0.31712,0.35525 -0.37305,0.79647 -0.37305,1.15625c0,0.69344 0.24356,2.44565 1.12109,4.98047c0.87754,2.53482 2.3934,5.79249 4.94922,9.27148c3.73075,5.07794 8.66377,8.06055 13.1582,8.06055c0.71789,0 1.40097,-0.17271 1.92578,-0.59375c0.52481,-0.42104 0.84766,-1.09754 0.84766,-1.90625v-4.56641v-0.00195c-0.00037,-0.34452 0.10641,-0.54283 0.27148,-0.68945c0.16508,-0.14663 0.41507,-0.24023 0.72656,-0.24023c0.3805,0 0.73564,0.11336 1.3418,0.58789c0.60616,0.47453 1.41816,1.30675 2.56641,2.63867h-0.00195c1.31761,1.52948 2.08811,2.65817 2.76367,3.45703c0.6756,0.79886 1.36659,1.31641 2.29492,1.31641h4.03516c0.53854,0 1.0194,-0.10692 1.39453,-0.39062c0.37514,-0.2837 0.5879,-0.74911 0.60352,-1.24414c0.008,-0.25565 -0.03086,-0.51323 -0.09766,-0.78711l-0.00586,-0.02148l-0.00586,-0.02148c-0.35239,-1.03023 -1.56087,-3.15082 -3.30664,-5.25391c-0.945,-1.138 -1.89137,-2.28334 -2.28711,-2.84961l-0.00195,-0.00195l-0.00195,-0.00391c-0.25836,-0.3587 -0.29637,-0.51669 -0.29102,-0.63672c0.005,-0.11749 0.09687,-0.32445 0.31641,-0.69727l0.00977,-0.01758c0.00089,-0.0015 0.00667,-0.01263 0.00977,-0.01758l0.01953,-0.0293c0.03205,-0.04986 0.08525,-0.12891 0.15234,-0.23047c0.1342,-0.20311 0.3301,-0.4994 0.56836,-0.86133c0.47652,-0.72386 1.12124,-1.71466 1.78516,-2.78516c0.66392,-1.0705 1.34712,-2.22046 1.90039,-3.26562c0.54846,-1.03607 0.96625,-1.94269 1.12109,-2.66602c0.08151,-0.26689 0.12297,-0.52978 0.11523,-0.77734v-0.00195v-0.00391c-0.01681,-0.38847 -0.18356,-0.79259 -0.51367,-1.05664c-0.33011,-0.26405 -0.77332,-0.37891 -1.29883,-0.37891h-4.03516c-0.60903,0 -1.11317,0.19682 -1.47656,0.49609c-0.36339,0.29927 -0.58576,0.67891 -0.74219,1.02734v-0.00391c0,0 -2.22748,4.84708 -4.86719,8.16992c-0.13799,0.17366 -1.06493,1.31055 -2.56445,1.31055c-0.04167,0 -0.18878,-0.01998 -0.28516,-0.0957c-0.09638,-0.07573 -0.21484,-0.20291 -0.21484,-0.6543v-8.19336c0,-0.57443 -0.05311,-1.05694 -0.32617,-1.45898c-0.27307,-0.40204 -0.77524,-0.59766 -1.30078,-0.59766h-6.87305c-0.89703,0 -1.5,0.7551 -1.5,1.5c0,0.41876 0.2314,0.76021 0.46094,0.98828c0.22954,0.22807 0.47228,0.40178 0.69336,0.61328c0.44215,0.42301 0.84317,0.93913 0.8418,2.24609v5.55859c0,0.64494 -0.08027,0.98999 -0.12109,1.06641c-0.02041,0.03821 -0.00601,0.01467 -0.00391,0.01367c0.0021,-0.00099 -0.03297,0.01172 -0.12109,0.01172c-0.07761,0 -0.45569,-0.16062 -0.90039,-0.61914c-0.44471,-0.45851 -0.96795,-1.16271 -1.50586,-2.05859c-1.07581,-1.79176 -2.2214,-4.35121 -3.11328,-7.33008l-0.00195,-0.00586l-0.00195,-0.00781c-0.20509,-0.62234 -0.41848,-1.10819 -0.79687,-1.4668c-0.37839,-0.3586 -0.90125,-0.51172 -1.48633,-0.51172zM32.87305,39.99805h4.07031c0.43892,0 0.62552,0.07393 0.79688,0.23633c0.17136,0.16239 0.34934,0.49301 0.53516,1.05664c0.91348,3.04695 2.08229,5.66516 3.21094,7.54492c0.56522,0.94137 1.11845,1.69781 1.64453,2.24023c0.52608,0.54242 1.01325,0.92188 1.61914,0.92188c0.16788,0 0.35474,-0.01641 0.54492,-0.10547c0.19018,-0.08906 0.3586,-0.25768 0.46094,-0.44922c0.20467,-0.38308 0.24023,-0.83405 0.24023,-1.53711v-5.55859c0.0016,-1.54104 -0.59329,-2.43576 -1.15039,-2.96875c-0.27855,-0.26649 -0.53628,-0.45713 -0.68164,-0.60156c-0.14536,-0.14443 -0.16406,-0.1841 -0.16406,-0.27734c0,-0.2371 0.14503,-0.5 0.5,-0.5h6.87305c0.33546,0 0.39797,0.0502 0.47266,0.16016c0.07469,0.10996 0.1543,0.40492 0.1543,0.89648v8.19336c0,0.67361 0.25653,1.17143 0.59766,1.43945c0.34112,0.26802 0.69401,0.31055 0.90234,0.31055c2.00048,0 3.1897,-1.49312 3.3457,-1.68945c2.76229,-3.47715 4.99609,-8.375 4.99609,-8.375v-0.00195h0.00195c0.12057,-0.26857 0.26998,-0.50358 0.46484,-0.66406c0.19481,-0.16043 0.43283,-0.26953 0.8418,-0.26953h4.03516c0.37749,0 0.57919,0.08445 0.67383,0.16016c0.09416,0.07532 0.13309,0.15169 0.14063,0.31836c0.0034,0.12756 -0.01808,0.28707 -0.07422,0.46484l-0.00781,0.02344l-0.00391,0.02344c-0.10458,0.50168 -0.50123,1.41543 -1.03711,2.42773c-0.53588,1.01231 -1.20852,2.1462 -1.86523,3.20508c-0.65671,1.05888 -1.2976,2.04381 -1.77148,2.76367c-0.23694,0.35993 -0.43272,0.65213 -0.56836,0.85742c-0.06782,0.10264 -0.12078,0.18396 -0.1582,0.24219c-0.01871,0.02911 -0.03272,0.05054 -0.04687,0.07422c-0.0036,0.006 -0.0076,0.01812 -0.01172,0.02539c-0.004,0.0071 -0.0072,0.01066 -0.01367,0.02344c-0.0065,0.01297 -0.03292,0.07722 -0.0332,0.07813c-0.00002,0.00007 -0.00301,0.0202 -0.00391,0.02734c-0.19442,0.33045 -0.38499,0.6334 -0.40234,1.0293c-0.01862,0.41741 0.15986,0.82306 0.47852,1.26563v0.00195c0.45918,0.65624 1.3888,1.77234 2.33203,2.9082c1.6677,2.00905 2.86504,4.18556 3.12109,4.92383c0.04716,0.20201 0.07021,0.36868 0.06641,0.49023c-0.0084,0.26597 -0.07537,0.37747 -0.20898,0.47852c-0.13365,0.10099 -0.39056,0.1875 -0.79102,0.1875h-4.03516c-0.60067,0 -0.91656,-0.23405 -1.53125,-0.96094c-0.61469,-0.72689 -1.41914,-1.89732 -2.76953,-3.46484c-1.16476,-1.35108 -1.99649,-2.21872 -2.70508,-2.77344c-0.70859,-0.55472 -1.33948,-0.80078 -1.95898,-0.80078c-0.51351,0 -1.0122,0.15606 -1.39062,0.49219c-0.37842,0.33612 -0.60805,0.85302 -0.60742,1.43945v4.56641c0,0.56629 -0.17947,0.89174 -0.47266,1.12695c-0.29319,0.23521 -0.74667,0.37305 -1.30078,0.37305c-4.04557,0 -8.76031,-2.76428 -12.35156,-7.65234c-2.49118,-3.391 -3.96283,-6.55913 -4.81055,-9.00781c-0.84772,-2.44868 -1.06641,-4.23779 -1.06641,-4.65234c0,-0.25122 0.04326,-0.40523 0.11914,-0.49023c0.07588,-0.085 0.24854,-0.19727 0.75391,-0.19727zM77.49219,41.99219c-0.13261,0.00207 -0.25896,0.05673 -0.35127,0.15197c-0.0923,0.09523 -0.14299,0.22324 -0.14092,0.35584v4c-0.00255,0.18032 0.09219,0.34804 0.24794,0.43894c0.15575,0.0909 0.34838,0.0909 0.50413,0c0.15575,-0.0909 0.25049,-0.25863 0.24794,-0.43894v-4c0.00212,-0.13532 -0.0507,-0.26572 -0.1464,-0.36141c-0.0957,-0.0957 -0.22609,-0.14852 -0.36141,-0.1464z"></path></g></g></svg>